<svg width="42" height="42" viewBox="0 0 42 42" fill="none" xmlns="http://www.w3.org/2000/svg">
<circle cx="21" cy="21" r="21" fill="#363941"/>
<path fill-rule="evenodd" clip-rule="evenodd" d="M11 14.0588C11 13.4741 11.4404 13 11.9836 13H30.0164C30.5596 13 31 13.4741 31 14.0588V18.4706C31 19.0554 30.5596 19.5294 30.0164 19.5294H29.3607V29.9412C29.3607 30.5259 28.9203 31 28.377 31H13.623C13.0797 31 12.6393 30.5259 12.6393 29.9412V19.5294H11.9836C11.4404 19.5294 11 19.0554 11 18.4706V14.0588ZM14.6066 19.5294V28.8824H27.3934V19.5294H14.6066ZM29.0328 17.4118H12.9672V15.1176H29.0328V17.4118ZM18.377 22C18.377 21.4152 18.8174 20.9412 19.3607 20.9412H22.6393C23.1826 20.9412 23.623 21.4152 23.623 22C23.623 22.5848 23.1826 23.0588 22.6393 23.0588H19.3607C18.8174 23.0588 18.377 22.5848 18.377 22Z" fill="white"/>
</svg>
