<svg width="378" height="30" viewBox="0 0 378 30" fill="none" xmlns="http://www.w3.org/2000/svg">
<path d="M83.1909 0C84.1537 0 84.9342 0.785461 84.9342 1.75438V27.6974C84.9342 27.7579 84.8854 27.807 84.8252 27.807H82.4543C81.4915 27.807 80.711 27.0216 80.711 26.0527V0.109648C80.711 0.0490913 80.7598 0 80.82 0H83.1909Z" fill="white"/>
<path d="M17.078 14.8771C17.6955 13.709 18.0042 12.4663 18.0042 11.1491C18.0042 9.70755 17.6584 7.74484 16.9669 6.57672C16.3001 5.40859 15.2752 4.48901 13.8921 3.81796C12.5338 3.12206 10.8667 2.77411 8.89096 2.77411H0.108958C0.0487821 2.77411 0 2.8232 0 2.88375V6.35084C0 6.4114 0.0487821 6.46049 0.108958 6.46049H8.89096C12.0769 6.46049 13.6698 8.31574 13.6698 11.1491C13.6698 12.4912 13.2747 13.3157 12.4844 14.0613C11.6941 14.7821 10.4963 15.3618 8.89096 15.3618H4.33216C4.27199 15.3618 4.2232 15.3127 4.2232 15.2521V6.91834C4.2232 6.84969 4.16122 6.79792 4.09417 6.81057L1.42205 7.31477C0.597504 7.47035 0 8.19486 0 9.0391V28.7688C0 28.8382 0.0633766 28.8902 0.130982 28.8761L2.83227 28.3151C3.64219 28.1468 4.2232 27.4291 4.2232 26.5969V19.3771C4.2232 19.3165 4.27199 19.2674 4.33216 19.2674H8.89096C11.3282 19.2674 12.9626 18.7062 14.2701 17.829C15.5776 16.9518 16.4606 16.0452 17.078 14.8771Z" fill="white"/>
<path d="M48.7038 10.7264C48.7038 10.8378 48.8537 10.8805 48.9154 10.788C49.5035 9.90569 50.248 9.21026 51.1488 8.7017C52.1592 8.12067 53.3454 7.82263 54.7073 7.80757C54.7675 7.80691 54.8163 7.85606 54.8163 7.91662V12.0964C54.8163 12.157 54.7675 12.2061 54.7074 12.2061H53.742C52.0873 12.2061 50.8277 12.6286 49.9633 13.4736C49.1236 14.3186 48.7038 15.785 48.7038 17.8727V29.0133C48.7038 29.0739 48.655 29.123 48.5948 29.123H44.5895C44.5294 29.123 44.4806 29.0739 44.4806 29.0133V8.25215C44.4806 8.19159 44.5294 8.1425 44.5895 8.1425H48.5948C48.655 8.1425 48.7038 8.19159 48.7038 8.25215V10.7264Z" fill="white"/>
<path d="M93.2639 30C93.324 30 93.3728 29.9509 93.3728 29.8904V3.94735C93.3728 2.97843 92.5923 2.19297 91.6295 2.19297H89.2586C89.1984 2.19297 89.1496 2.24206 89.1496 2.30262V28.2456C89.1496 29.2145 89.9301 30 90.8929 30H93.2639Z" fill="white"/>
<path fill-rule="evenodd" clip-rule="evenodd" d="M116.758 17.7939C116.758 18.5264 116.713 19.1916 116.624 19.7893C116.616 19.8426 116.57 19.8816 116.517 19.8816H101.131C101.068 19.8816 101.018 19.9361 101.023 19.9996C101.166 21.5853 101.768 22.8632 102.829 23.8334C103.915 24.8275 105.249 25.3246 106.83 25.3246C109.077 25.3246 110.673 24.3882 111.615 22.5153C111.634 22.478 111.672 22.454 111.713 22.454H116.052C116.126 22.454 116.178 22.527 116.154 22.5976C115.527 24.4217 114.42 25.9272 112.831 27.1141C111.226 28.307 109.225 28.9035 106.83 28.9035C104.879 28.9035 103.125 28.4686 101.569 27.5987C100.038 26.704 98.8278 25.4613 97.9388 23.8706C97.0744 22.2552 96.6422 20.3911 96.6422 18.2786C96.6422 16.166 97.062 14.3144 97.9017 12.7238C98.7661 11.1083 99.9639 9.86561 101.495 8.99573C103.051 8.12586 104.829 7.69092 106.83 7.69092C108.756 7.69092 110.473 8.11343 111.979 8.95845C113.486 9.80348 114.659 10.9965 115.498 12.5374C116.338 14.0535 116.758 15.8056 116.758 17.7939ZM112.239 16.4518C112.3 16.4518 112.349 16.4015 112.347 16.3403C112.298 14.8263 111.743 13.6084 110.682 12.6865C109.596 11.7421 108.25 11.2698 106.644 11.2698C105.187 11.2698 103.94 11.7421 102.903 12.6865C101.893 13.5822 101.281 14.7962 101.067 16.3286C101.058 16.3939 101.108 16.4518 101.174 16.4518H112.239Z" fill="white"/>
<path d="M123.891 28.9035C123.951 28.9035 124 28.8544 124 28.7939V2.85086C124 1.88195 123.219 1.09648 122.257 1.09648H119.886C119.826 1.09648 119.777 1.14558 119.777 1.20613V27.1491C119.777 28.1181 120.557 28.9035 121.52 28.9035H123.891Z" fill="white"/>
<path fill-rule="evenodd" clip-rule="evenodd" d="M30.0689 29.1228C32.3284 29.1228 34.4152 28.3466 36.1004 27.0343C36.1729 26.9779 36.2795 27.0293 36.2795 27.1215V29.0132C36.2795 29.0737 36.3283 29.1228 36.3885 29.1228H40.5289C40.5891 29.1228 40.6379 29.0737 40.6379 29.0132V7.96065C40.6379 7.90009 40.5891 7.851 40.5289 7.851H36.3885C36.3283 7.851 36.2795 7.90009 36.2795 7.96065V9.85229C36.2795 9.94454 36.1729 9.99595 36.1004 9.93949C34.4152 8.62723 32.3284 7.851 30.0689 7.851C24.4726 7.851 19.9359 12.6129 19.9359 18.4869C19.9359 24.361 24.4726 29.1228 30.0689 29.1228ZM30.2869 24.9562C33.8372 24.9562 36.4975 22.0598 36.4975 18.4869C36.4975 14.914 33.8372 12.0176 30.2869 12.0176C26.7365 12.0176 24.0763 14.914 24.0763 18.4869C24.0763 22.0598 26.7365 24.9562 30.2869 24.9562Z" fill="white"/>
<path fill-rule="evenodd" clip-rule="evenodd" d="M66.2429 29.1228C68.5024 29.1228 70.5892 28.3466 72.2744 27.0343C72.3469 26.9779 72.4535 27.0293 72.4535 27.1215V29.0132C72.4535 29.0737 72.5023 29.1228 72.5625 29.1228H76.7029C76.7631 29.1228 76.8118 29.0737 76.8118 29.0132V7.96065C76.8118 7.90009 76.7631 7.851 76.7029 7.851H72.5625C72.5023 7.851 72.4535 7.90009 72.4535 7.96065V9.85229C72.4535 9.94454 72.3469 9.99595 72.2744 9.93949C70.5892 8.62723 68.5024 7.851 66.2429 7.851C60.6466 7.851 56.1099 12.6129 56.1099 18.4869C56.1099 24.361 60.6466 29.1228 66.2429 29.1228ZM66.4609 24.9562C70.0112 24.9562 72.8894 22.0598 72.8894 18.4869C72.8894 14.914 70.0112 12.0176 66.4609 12.0176C62.9105 12.0176 60.2503 14.914 60.2503 18.4869C60.2503 22.0598 62.9105 24.9562 66.4609 24.9562Z" fill="white"/>
<rect x="153.47" width="196.464" height="30" rx="5" fill="white"/>
<path d="M174.97 23.9513C173.682 23.9513 172.448 23.7827 171.267 23.4453C170.086 23.0927 169.136 22.6403 168.415 22.0883L169.68 19.2823C170.37 19.773 171.183 20.1793 172.118 20.5013C173.069 20.808 174.027 20.9613 174.993 20.9613C175.729 20.9613 176.319 20.8923 176.764 20.7543C177.224 20.601 177.561 20.394 177.776 20.1333C177.991 19.8727 178.098 19.5737 178.098 19.2363C178.098 18.807 177.929 18.4697 177.592 18.2243C177.255 17.9637 176.81 17.7567 176.258 17.6033C175.706 17.4347 175.093 17.2813 174.418 17.1433C173.759 16.99 173.092 16.806 172.417 16.5913C171.758 16.3767 171.152 16.1007 170.6 15.7633C170.048 15.426 169.596 14.9813 169.243 14.4293C168.906 13.8773 168.737 13.172 168.737 12.3133C168.737 11.3933 168.982 10.5577 169.473 9.80632C169.979 9.03966 170.73 8.43399 171.727 7.98932C172.739 7.52932 174.004 7.29932 175.522 7.29932C176.534 7.29932 177.531 7.42199 178.512 7.66732C179.493 7.89732 180.36 8.24999 181.111 8.72532L179.961 11.5543C179.21 11.125 178.458 10.8107 177.707 10.6113C176.956 10.3967 176.22 10.2893 175.499 10.2893C174.778 10.2893 174.188 10.3737 173.728 10.5423C173.268 10.711 172.938 10.9333 172.739 11.2093C172.54 11.47 172.44 11.7767 172.44 12.1293C172.44 12.5433 172.609 12.8807 172.946 13.1413C173.283 13.3867 173.728 13.586 174.28 13.7393C174.832 13.8927 175.438 14.046 176.097 14.1993C176.772 14.3527 177.439 14.529 178.098 14.7283C178.773 14.9277 179.386 15.196 179.938 15.5333C180.49 15.8707 180.935 16.3153 181.272 16.8673C181.625 17.4193 181.801 18.117 181.801 18.9603C181.801 19.865 181.548 20.693 181.042 21.4443C180.536 22.1957 179.777 22.8013 178.765 23.2613C177.768 23.7213 176.503 23.9513 174.97 23.9513ZM191.5 23.9513C189.215 23.9513 187.429 23.315 186.141 22.0423C184.853 20.7697 184.209 18.9527 184.209 16.5913V7.57532H187.935V16.4533C187.935 17.9867 188.249 19.0907 188.878 19.7653C189.507 20.44 190.388 20.7773 191.523 20.7773C192.658 20.7773 193.539 20.44 194.168 19.7653C194.797 19.0907 195.111 17.9867 195.111 16.4533V7.57532H198.791V16.5913C198.791 18.9527 198.147 20.7697 196.859 22.0423C195.571 23.315 193.785 23.9513 191.5 23.9513ZM202.473 23.6753V7.57532H209.442C210.883 7.57532 212.125 7.81299 213.168 8.28832C214.211 8.74832 215.016 9.41532 215.583 10.2893C216.15 11.1633 216.434 12.206 216.434 13.4173C216.434 14.6133 216.15 15.6483 215.583 16.5223C215.016 17.3963 214.211 18.071 213.168 18.5463C212.125 19.0063 210.883 19.2363 209.442 19.2363H204.543L206.199 17.5573V23.6753H202.473ZM206.199 17.9713L204.543 16.2003H209.235C210.385 16.2003 211.244 15.955 211.811 15.4643C212.378 14.9737 212.662 14.2913 212.662 13.4173C212.662 12.528 212.378 11.838 211.811 11.3473C211.244 10.8567 210.385 10.6113 209.235 10.6113H204.543L206.199 8.84032V17.9713ZM222.521 14.0613H230.272V16.9593H222.521V14.0613ZM222.797 20.6853H231.56V23.6753H219.094V7.57532H231.261V10.5653H222.797V20.6853ZM234.525 23.6753V7.57532H241.494C242.935 7.57532 244.177 7.81299 245.22 8.28832C246.262 8.74832 247.067 9.41532 247.635 10.2893C248.202 11.1633 248.486 12.206 248.486 13.4173C248.486 14.6133 248.202 15.6483 247.635 16.5223C247.067 17.381 246.262 18.0403 245.22 18.5003C244.177 18.9603 242.935 19.1903 241.494 19.1903H236.595L238.251 17.5573V23.6753H234.525ZM244.76 23.6753L240.735 17.8333H244.714L248.785 23.6753H244.76ZM238.251 17.9713L236.595 16.2233H241.287C242.437 16.2233 243.295 15.978 243.863 15.4873C244.43 14.9813 244.714 14.2913 244.714 13.4173C244.714 12.528 244.43 11.838 243.863 11.3473C243.295 10.8567 242.437 10.6113 241.287 10.6113H236.595L238.251 8.84032V17.9713ZM249.322 23.6753L256.498 7.57532H260.178L267.377 23.6753H263.467L257.579 9.46132H259.051L253.14 23.6753H249.322ZM252.91 20.2253L253.899 17.3963H262.179L263.191 20.2253H252.91ZM269.047 23.6753V7.57532H276.361C278.109 7.57532 279.65 7.91266 280.984 8.58732C282.318 9.24666 283.361 10.1743 284.112 11.3703C284.864 12.5663 285.239 13.9847 285.239 15.6253C285.239 17.2507 284.864 18.669 284.112 19.8803C283.361 21.0763 282.318 22.0117 280.984 22.6863C279.65 23.3457 278.109 23.6753 276.361 23.6753H269.047ZM272.773 20.6163H276.177C277.251 20.6163 278.178 20.417 278.96 20.0183C279.758 19.6043 280.371 19.0217 280.8 18.2703C281.245 17.519 281.467 16.6373 281.467 15.6253C281.467 14.598 281.245 13.7163 280.8 12.9803C280.371 12.229 279.758 11.654 278.96 11.2553C278.178 10.8413 277.251 10.6343 276.177 10.6343H272.773V20.6163ZM288.049 23.6753V7.57532H291.131L297.985 18.9373H296.352L303.091 7.57532H306.15L306.196 23.6753H302.7L302.677 12.9343H303.321L297.939 21.9733H296.26L290.763 12.9343H291.545V23.6753H288.049ZM310.016 23.6753V7.57532H313.742V23.6753H310.016ZM317.563 23.6753V7.57532H320.645L330.144 19.1673H328.649V7.57532H332.329V23.6753H329.27L319.748 12.0833H321.243V23.6753H317.563Z" fill="black"/>
<path d="M127 0.607422V0H130.589V0.607422H129.199V4H128.391V0.607422H127Z" fill="white"/>
<path d="M131.281 0H132.279L133.614 2.89844H133.667L135.003 0H136V4H135.218V1.25195H135.176L133.933 3.98828H133.349L132.105 1.24609H132.063V4H131.281V0Z" fill="white"/>
</svg>
