<svg width="159" height="16" viewBox="0 0 159 16" fill="none" xmlns="http://www.w3.org/2000/svg">
<path d="M0 12.5089V0.0960693H4.18922C5.16186 0.0960693 5.95693 0.271837 6.57441 0.623372C7.19593 0.970867 7.65602 1.4416 7.95467 2.03557C8.25333 2.62955 8.40266 3.29221 8.40266 4.02357C8.40266 4.75492 8.25333 5.41961 7.95467 6.01762C7.66006 6.61564 7.20401 7.09243 6.58652 7.44801C5.96903 7.79954 5.178 7.97531 4.21343 7.97531H1.21076V6.6419H4.165C4.83092 6.6419 5.36567 6.52674 5.76926 6.29643C6.17284 6.06611 6.46544 5.75498 6.64706 5.36304C6.83271 4.96706 6.92553 4.52057 6.92553 4.02357C6.92553 3.52657 6.83271 3.0821 6.64706 2.69016C6.46544 2.29822 6.17083 1.99113 5.7632 1.76889C5.35558 1.54262 4.81478 1.42948 4.14079 1.42948H1.50134V12.5089H0Z" fill="#606369"/>
<path d="M14.3051 12.7029C13.4656 12.7029 12.7291 12.5028 12.0955 12.1028C11.4659 11.7028 10.9735 11.1432 10.6183 10.4239C10.2672 9.7047 10.0917 8.86425 10.0917 7.90258C10.0917 6.93283 10.2672 6.08631 10.6183 5.36304C10.9735 4.63976 11.4659 4.07812 12.0955 3.67809C12.7291 3.27807 13.4656 3.07806 14.3051 3.07806C15.1446 3.07806 15.8791 3.27807 16.5087 3.67809C17.1423 4.07812 17.6347 4.63976 17.9858 5.36304C18.341 6.08631 18.5185 6.93283 18.5185 7.90258C18.5185 8.86425 18.341 9.7047 17.9858 10.4239C17.6347 11.1432 17.1423 11.7028 16.5087 12.1028C15.8791 12.5028 15.1446 12.7029 14.3051 12.7029ZM14.3051 11.4179C14.9428 11.4179 15.4674 11.2543 15.8791 10.927C16.2907 10.5997 16.5954 10.1694 16.7932 9.63601C16.991 9.10265 17.0898 8.52484 17.0898 7.90258C17.0898 7.28032 16.991 6.70049 16.7932 6.16308C16.5954 5.62568 16.2907 5.19131 15.8791 4.85998C15.4674 4.52865 14.9428 4.36298 14.3051 4.36298C13.6674 4.36298 13.1428 4.52865 12.7311 4.85998C12.3195 5.19131 12.0147 5.62568 11.817 6.16308C11.6192 6.70049 11.5204 7.28032 11.5204 7.90258C11.5204 8.52484 11.6192 9.10265 11.817 9.63601C12.0147 10.1694 12.3195 10.5997 12.7311 10.927C13.1428 11.2543 13.6674 11.4179 14.3051 11.4179Z" fill="#606369"/>
<path d="M22.4898 12.5089L19.6566 3.19928H21.158L23.1678 10.327H23.2647L25.2503 3.19928H26.7759L28.7373 10.3027H28.8342L30.844 3.19928H32.3454L29.5122 12.5089H28.1077L26.0737 5.35698H25.9284L23.8943 12.5089H22.4898Z" fill="#606369"/>
<path d="M37.8165 12.7029C36.9205 12.7029 36.1477 12.5049 35.4979 12.1089C34.8521 11.7089 34.3537 11.1513 34.0026 10.4361C33.6555 9.71682 33.482 8.88041 33.482 7.92682C33.482 6.97323 33.6555 6.13278 34.0026 5.40547C34.3537 4.67411 34.8421 4.10438 35.4676 3.69628C36.0972 3.28413 36.8317 3.07806 37.6712 3.07806C38.1555 3.07806 38.6338 3.15887 39.1059 3.3205C39.5781 3.48212 40.008 3.74476 40.3954 4.10842C40.7828 4.46804 41.0916 4.94483 41.3216 5.53881C41.5517 6.13278 41.6667 6.86414 41.6667 7.73287V8.33897H34.499V7.10253H40.2138C40.2138 6.57725 40.1089 6.10854 39.899 5.69639C39.6932 5.28425 39.3985 4.95898 39.0151 4.72058C38.6358 4.48218 38.1878 4.36298 37.6712 4.36298C37.1021 4.36298 36.6098 4.5044 36.1941 4.78725C35.7824 5.06605 35.4656 5.42971 35.2436 5.87822C35.0217 6.32673 34.9107 6.80757 34.9107 7.32073V8.14502C34.9107 8.84809 35.0317 9.44408 35.2739 9.933C35.5201 10.4179 35.8611 10.7876 36.297 11.0422C36.7329 11.2927 37.2394 11.4179 37.8165 11.4179C38.1918 11.4179 38.5308 11.3654 38.8335 11.2603C39.1403 11.1513 39.4046 10.9896 39.6266 10.7755C39.8485 10.5573 40.0201 10.2866 40.1411 9.9633L41.5214 10.3512C41.3761 10.8199 41.1319 11.2321 40.7889 11.5876C40.4458 11.9392 40.0221 12.2139 39.5176 12.4119C39.0131 12.6059 38.4461 12.7029 37.8165 12.7029Z" fill="#606369"/>
<path d="M43.84 12.5089V3.19928H45.2203V4.60542H45.3171C45.4866 4.14479 45.7934 3.77103 46.2373 3.48414C46.6812 3.19726 47.1817 3.05381 47.7386 3.05381C47.8436 3.05381 47.9747 3.05584 48.1321 3.05988C48.2895 3.06392 48.4086 3.06998 48.4893 3.07806V4.53269C48.4409 4.52057 48.3299 4.50238 48.1564 4.47814C47.9868 4.44985 47.8073 4.43571 47.6176 4.43571C47.1656 4.43571 46.762 4.53067 46.4068 4.72058C46.0557 4.90645 45.7772 5.16505 45.5714 5.49638C45.3696 5.82367 45.2687 6.19743 45.2687 6.61766V12.5089H43.84Z" fill="#606369"/>
<path d="M53.7985 12.7029C52.9025 12.7029 52.1297 12.5049 51.4799 12.1089C50.8341 11.7089 50.3357 11.1513 49.9846 10.4361C49.6375 9.71682 49.464 8.88041 49.464 7.92682C49.464 6.97323 49.6375 6.13278 49.9846 5.40547C50.3357 4.67411 50.8241 4.10438 51.4496 3.69628C52.0792 3.28413 52.8137 3.07806 53.6532 3.07806C54.1375 3.07806 54.6157 3.15887 55.0879 3.3205C55.5601 3.48212 55.99 3.74476 56.3774 4.10842C56.7648 4.46804 57.0736 4.94483 57.3036 5.53881C57.5337 6.13278 57.6487 6.86414 57.6487 7.73287V8.33897H50.481V7.10253H56.1958C56.1958 6.57725 56.0909 6.10854 55.881 5.69639C55.6752 5.28425 55.3805 4.95898 54.9971 4.72058C54.6178 4.48218 54.1698 4.36298 53.6532 4.36298C53.0841 4.36298 52.5918 4.5044 52.1761 4.78725C51.7644 5.06605 51.4476 5.42971 51.2256 5.87822C51.0037 6.32673 50.8927 6.80757 50.8927 7.32073V8.14502C50.8927 8.84809 51.0137 9.44408 51.2559 9.933C51.5021 10.4179 51.8431 10.7876 52.279 11.0422C52.7149 11.2927 53.2214 11.4179 53.7985 11.4179C54.1738 11.4179 54.5128 11.3654 54.8155 11.2603C55.1222 11.1513 55.3866 10.9896 55.6086 10.7755C55.8305 10.5573 56.0021 10.2866 56.1231 9.9633L57.5034 10.3512C57.3581 10.8199 57.1139 11.2321 56.7709 11.5876C56.4278 11.9392 56.0041 12.2139 55.4996 12.4119C54.9951 12.6059 54.4281 12.7029 53.7985 12.7029Z" fill="#606369"/>
<path d="M63.3332 12.7029C62.5583 12.7029 61.8742 12.5069 61.281 12.1149C60.6877 11.719 60.2236 11.1614 59.8886 10.4421C59.5536 9.71884 59.3861 8.86425 59.3861 7.87834C59.3861 6.9005 59.5536 6.05197 59.8886 5.33273C60.2236 4.6135 60.6897 4.05791 61.287 3.66597C61.8843 3.27403 62.5745 3.07806 63.3574 3.07806C63.9628 3.07806 64.441 3.17908 64.7922 3.38111C65.1473 3.5791 65.4177 3.80537 65.6034 4.05993C65.7931 4.31045 65.9404 4.51653 66.0453 4.67815H66.1664V0.0960693H67.5951V12.5089H66.2148V11.0785H66.0453C65.9404 11.2482 65.791 11.4624 65.5973 11.721C65.4036 11.9755 65.1271 12.2038 64.7679 12.4059C64.4088 12.6039 63.9305 12.7029 63.3332 12.7029ZM63.5269 11.4179C64.1 11.4179 64.5843 11.2684 64.9798 10.9694C65.3753 10.6664 65.676 10.2482 65.8818 9.7148C66.0877 9.1774 66.1906 8.55716 66.1906 7.85409C66.1906 7.1591 66.0897 6.55099 65.8879 6.02974C65.6861 5.50446 65.3874 5.09636 64.9919 4.80543C64.5964 4.51047 64.1081 4.36298 63.5269 4.36298C62.9215 4.36298 62.4171 4.51855 62.0135 4.82967C61.6139 5.13676 61.3132 5.55497 61.1115 6.08429C60.9137 6.60958 60.8148 7.19951 60.8148 7.85409C60.8148 8.51676 60.9157 9.11881 61.1175 9.66026C61.3233 10.1977 61.626 10.626 62.0256 10.9452C62.4292 11.2603 62.9296 11.4179 63.5269 11.4179Z" fill="#606369"/>
<path d="M75.3984 12.5089V0.0960693H76.8271V4.67815H76.9482C77.0531 4.51653 77.1984 4.31045 77.384 4.05993C77.5737 3.80537 77.8441 3.5791 78.1952 3.38111C78.5504 3.17908 79.0307 3.07806 79.636 3.07806C80.419 3.07806 81.1091 3.27403 81.7064 3.66597C82.3037 4.05791 82.7699 4.6135 83.1049 5.33273C83.4398 6.05197 83.6073 6.9005 83.6073 7.87834C83.6073 8.86425 83.4398 9.71884 83.1049 10.4421C82.7699 11.1614 82.3058 11.719 81.7125 12.1149C81.1192 12.5069 80.4351 12.7029 79.6603 12.7029C79.063 12.7029 78.5847 12.6039 78.2255 12.4059C77.8663 12.2038 77.5899 11.9755 77.3961 11.721C77.2024 11.4624 77.0531 11.2482 76.9482 11.0785H76.7787V12.5089H75.3984ZM76.8029 7.85409C76.8029 8.55716 76.9058 9.1774 77.1116 9.7148C77.3174 10.2482 77.6181 10.6664 78.0136 10.9694C78.4091 11.2684 78.8934 11.4179 79.4665 11.4179C80.0638 11.4179 80.5623 11.2603 80.9618 10.9452C81.3654 10.626 81.6681 10.1977 81.8699 9.66026C82.0757 9.11881 82.1786 8.51676 82.1786 7.85409C82.1786 7.19951 82.0777 6.60958 81.8759 6.08429C81.6782 5.55497 81.3775 5.13676 80.9739 4.82967C80.5744 4.51855 80.0719 4.36298 79.4665 4.36298C78.8854 4.36298 78.397 4.51047 78.0015 4.80543C77.606 5.09636 77.3074 5.50446 77.1056 6.02974C76.9038 6.55099 76.8029 7.1591 76.8029 7.85409Z" fill="#606369"/>
<path d="M86.38 16C86.1378 16 85.9219 15.9798 85.7322 15.9394C85.5425 15.903 85.4113 15.8667 85.3387 15.8303L85.7019 14.5696C86.049 14.6585 86.3557 14.6908 86.6221 14.6666C86.8885 14.6424 87.1246 14.5232 87.3304 14.309C87.5403 14.0989 87.732 13.7575 87.9055 13.2847L88.1719 12.5574L84.7333 3.19928H86.2831L88.8499 10.6179H88.9468L91.5136 3.19928H93.0633L89.1163 13.8666C88.9387 14.3474 88.7187 14.7454 88.4564 15.0606C88.1941 15.3798 87.8894 15.6162 87.5423 15.7697C87.1992 15.9232 86.8118 16 86.38 16Z" fill="#606369"/>
<path d="M123.798 4.83527C123.798 4.8833 123.861 4.90257 123.889 4.86341C124.2 4.42365 124.579 4.0744 125.025 3.81564C125.463 3.55203 125.945 3.406 126.47 3.37753C126.576 3.37177 126.662 3.45884 126.662 3.56551V6.1508C126.662 6.25747 126.576 6.34395 126.469 6.34395H125.893C125.194 6.34395 124.671 6.49718 124.321 6.80364C123.972 7.09915 123.798 7.62452 123.798 8.37973V12.4387C123.798 12.5454 123.712 12.6319 123.605 12.6319H121.191C121.085 12.6319 120.999 12.5454 120.999 12.4387V3.66402C120.999 3.55734 121.085 3.47087 121.191 3.47087H123.605C123.712 3.47087 123.798 3.55734 123.798 3.66402V4.83527Z" fill="#606369"/>
<path d="M139.77 0C140.302 0 140.733 0.432376 140.733 0.96574V11.9559C140.733 12.0625 140.647 12.149 140.54 12.149H138.897C138.365 12.149 137.934 11.7166 137.934 11.1833V0.193148C137.934 0.086475 138.02 0 138.127 0H139.77Z" fill="#606369"/>
<path d="M144.106 0.96574C144.638 0.96574 145.069 1.39812 145.069 1.93148V12.9216C145.069 13.0283 144.983 13.1147 144.876 13.1147H143.233C142.701 13.1147 142.27 12.6824 142.27 12.149V1.15889C142.27 1.05222 142.356 0.96574 142.463 0.96574H144.106Z" fill="#606369"/>
<path d="M155.216 7.90362C155.216 8.1132 155.205 8.32976 155.184 8.55328C155.175 8.65096 155.093 8.7245 154.995 8.7245H149.04C148.928 8.7245 148.839 8.82044 148.855 8.93178C148.923 9.40104 149.096 9.76975 149.372 10.0379C149.7 10.3334 150.098 10.4812 150.567 10.4812C151.221 10.4812 151.688 10.2224 151.969 9.70492C152.005 9.63883 152.072 9.59463 152.147 9.59463H154.755C154.881 9.59463 154.973 9.71344 154.935 9.83347C154.773 10.3408 154.518 10.8029 154.168 11.22C153.775 11.7015 153.279 12.0792 152.679 12.3528C152.078 12.6264 151.407 12.7632 150.665 12.7632C149.771 12.7632 148.974 12.5717 148.276 12.1886C147.577 11.8055 147.032 11.2583 146.639 10.5468C146.246 9.83542 146.148 9.51254 146.05 8.53424C145.952 7.55595 146.241 6.26733 146.623 5.5559C147.015 4.84447 147.561 4.29722 148.259 3.91414C148.958 3.53107 149.76 3.33953 150.665 3.33953C151.549 3.33953 152.335 3.52559 153.022 3.89773C153.71 4.26986 154.244 4.80069 154.626 5.49023C155.019 6.17977 155.216 6.98423 155.216 7.90362ZM152.159 7.16483C152.265 7.16483 152.353 7.07807 152.342 6.97192C152.303 6.57985 152.143 6.26107 151.86 6.01559C151.533 5.73102 151.124 5.58874 150.633 5.58874C150.163 5.58874 149.765 5.72555 149.438 5.99918C149.169 6.23141 148.987 6.54644 148.892 6.94425C148.864 7.05921 148.955 7.16483 149.073 7.16483H152.159Z" fill="#606369"/>
<path d="M158.037 0.48287C158.569 0.48287 159 0.915247 159 1.44861V12.4387C159 12.5454 158.914 12.6319 158.807 12.6319H157.164C156.632 12.6319 156.201 12.1995 156.201 11.6661V0.676018C156.201 0.569345 156.287 0.48287 156.394 0.48287H158.037Z" fill="#606369"/>
<path d="M101.104 12.7226C100.974 12.7541 100.848 12.6562 100.848 12.5231V4.61003C100.848 4.04186 101.239 3.54736 101.795 3.41293L103.315 3.04501C103.445 3.01352 103.571 3.11145 103.571 3.24452V6.31495C103.571 6.42836 103.663 6.5203 103.778 6.5203H104.913C105.324 6.5203 105.666 6.44325 105.941 6.28917C106.22 6.13509 106.431 5.91977 106.574 5.64321C106.717 5.3627 106.788 5.03675 106.788 4.66537C106.788 4.29004 106.717 3.96607 106.574 3.69346C106.431 3.4169 106.22 3.20355 105.941 3.05342C105.663 2.90329 105.32 2.82822 104.913 2.82822H104.213C104.213 2.82822 104.213 2.82812 104.212 2.82795C104.212 2.82778 104.212 2.82769 104.212 2.82769H101.055C100.941 2.82769 100.848 2.73575 100.848 2.62234V0.668977C100.848 0.555568 100.941 0.463631 101.055 0.463631H105.501C106.345 0.463631 107.073 0.64142 107.685 0.996998C108.301 1.34862 108.776 1.8405 109.109 2.47264C109.443 3.10083 109.61 3.83174 109.61 4.66537C109.61 5.50295 109.439 6.23584 109.098 6.86402C108.761 7.48826 108.279 7.97224 107.652 8.31596C107.025 8.65969 106.281 8.83155 105.419 8.83155H103.778C103.663 8.83155 103.571 8.92349 103.571 9.0369V11.1576C103.571 11.7258 103.18 12.2202 102.624 12.3547L101.104 12.7226Z" fill="#606369"/>
<path fill-rule="evenodd" clip-rule="evenodd" d="M114.665 12.632C115.497 12.632 116.278 12.4088 116.95 12.019C116.982 12.0001 117.023 12.0234 117.023 12.061V12.4388C117.023 12.5455 117.11 12.632 117.216 12.632H119.334C119.44 12.632 119.527 12.5455 119.527 12.4388V3.65057C119.527 3.5439 119.44 3.45742 119.334 3.45742H117.216C117.11 3.45742 117.023 3.5439 117.023 3.65057V4.02839C117.023 4.06597 116.982 4.08923 116.95 4.07042C116.278 3.68054 115.497 3.45742 114.665 3.45742C112.139 3.45742 110.091 5.51121 110.091 8.04469C110.091 10.5782 112.139 12.632 114.665 12.632ZM114.905 10.3142C116.128 10.3142 117.12 9.31971 117.12 8.09298C117.12 6.86624 116.128 5.87177 114.905 5.87177C113.682 5.87177 112.691 6.86624 112.691 8.09298C112.691 9.31971 113.682 10.3142 114.905 10.3142Z" fill="#606369"/>
<path fill-rule="evenodd" clip-rule="evenodd" d="M131.706 12.632C132.499 12.632 133.246 12.4293 133.896 12.0727C133.929 12.0549 133.969 12.0782 133.969 12.1153V12.4388C133.969 12.5455 134.055 12.632 134.161 12.632H136.279C136.386 12.632 136.472 12.5455 136.472 12.4388V3.65057C136.472 3.5439 136.386 3.45742 136.279 3.45742H134.161C134.055 3.45742 133.969 3.5439 133.969 3.65057V3.97412C133.969 4.01118 133.929 4.0345 133.896 4.01672C133.246 3.66013 132.499 3.45742 131.706 3.45742C129.18 3.45742 127.133 5.51121 127.133 8.04469C127.133 10.5782 129.18 12.632 131.706 12.632ZM131.85 10.3142C133.073 10.3142 134.065 9.31971 134.065 8.09298C134.065 6.86624 133.073 5.87177 131.85 5.87177C130.627 5.87177 129.636 6.86624 129.636 8.09298C129.636 9.31971 130.627 10.3142 131.85 10.3142Z" fill="#606369"/>
</svg>
